<svg xmlns="http://www.w3.org/2000/svg" xmlns:xlink="http://www.w3.org/1999/xlink" width="59" height="51" viewBox="0 0 59 51">
  <defs>
    <clipPath id="clip-Mesa_de_trabajo_4">
      <rect width="59" height="51"/>
    </clipPath>
  </defs>
  <g id="Mesa_de_trabajo_4" data-name="Mesa de trabajo – 4" clip-path="url(#clip-Mesa_de_trabajo_4)">
    <rect width="59" height="51" fill="#fff"/>
    <g id="Grupo_555" data-name="Grupo 555" transform="translate(-56 -490.895)">
      <path id="Trazado_97" data-name="Trazado 97" d="M-682.451,678.813l-.033-.1-5.25-12.52a6.957,6.957,0,0,0-5.913-3.934h-26.515a6.961,6.961,0,0,0-5.916,3.934l-5.249,12.52-.035.1c-2.786.564-4.92,3.371-4.92,6.723v15.086h4.756v4.98a4.48,4.48,0,0,0,4.377,4.55,4.482,4.482,0,0,0,4.381-4.55v-4.98h31.725v4.98a4.479,4.479,0,0,0,4.377,4.55,4.481,4.481,0,0,0,4.381-4.55v-4.98h4.756V685.536C-677.53,682.185-679.663,679.377-682.451,678.813Zm-44.7,12.686a4.2,4.2,0,0,1-4.2-4.2,4.2,4.2,0,0,1,4.2-4.2,4.2,4.2,0,0,1,4.2,4.2A4.2,4.2,0,0,1-727.15,691.5Zm.869-12.935,4.065-9.911a2.524,2.524,0,0,1,2.74-1.841h24.954a2.528,2.528,0,0,1,2.742,1.841l4.062,9.911Zm39.615,12.935a4.2,4.2,0,0,1-4.2-4.2,4.2,4.2,0,0,1,4.2-4.2,4.2,4.2,0,0,1,4.2,4.2A4.2,4.2,0,0,1-686.666,691.5Z" transform="translate(792.283 -170.257)" fill="#0586c6"/>
    </g>
  </g>
</svg>
