<svg xmlns="http://www.w3.org/2000/svg" version="1.1" xmlns:xlink="http://www.w3.org/1999/xlink" xmlns:svgjs="http://svgjs.dev/svgjs" viewBox="0 0 800 800"><defs><linearGradient gradientTransform="rotate(270)" x1="50%" y1="0%" x2="50%" y2="100%" id="sssquiggly-grad"><stop stop-color="hsl(105, 69%, 40%)" stop-opacity="1" offset="0%"></stop><stop stop-color="hsl(105, 69%, 60%)" stop-opacity="1" offset="100%"></stop></linearGradient></defs><g stroke-width="0.5" stroke="url(#sssquiggly-grad)" fill="none" stroke-linecap="round" transform="matrix(1,0,0,1,-5,-12.009040832519531)"><path d="M10,10C24.583333333333332,10.833333333333334,48.75,18.375,80,14C111.25,9.625,126.66666666666666,-11.833333333333334,160,-11C193.33333333333334,-10.166666666666666,206.66666666666666,18,240,18C273.3333333333333,18,286.6666666666667,-16.416666666666664,320,-11C353.3333333333333,-5.583333333333334,366.6666666666667,45.666666666666664,400,44C433.3333333333333,42.333333333333336,446.6666666666667,-17.75,480,-19C513.3333333333334,-20.25,526.6666666666666,33,560,38C593.3333333333334,43,606.6666666666666,6.041666666666667,640,5C673.3333333333334,3.958333333333333,686.6666666666666,32.583333333333336,720,33C753.3333333333334,33.416666666666664,783.3333333333334,12.416666666666666,800,7"></path><path d="M10,10C24.583333333333332,10.833333333333334,48.75,18.375,80,14C111.25,9.625,126.66666666666666,-11.833333333333334,160,-11C193.33333333333334,-10.166666666666666,206.66666666666666,18,240,18C273.3333333333333,18,286.6666666666667,-16.416666666666664,320,-11C353.3333333333333,-5.583333333333334,366.6666666666667,45.666666666666664,400,44C433.3333333333333,42.333333333333336,446.6666666666667,-17.75,480,-19C513.3333333333334,-20.25,526.6666666666666,33,560,38C593.3333333333334,43,606.6666666666666,6.041666666666667,640,5C673.3333333333334,3.958333333333333,686.6666666666666,32.583333333333336,720,33C753.3333333333334,33.416666666666664,783.3333333333334,12.416666666666666,800,7" transform="matrix(1,0,0,1,0,799)"></path><path d="M10,10C24.583333333333332,10.833333333333334,48.75,18.375,80,14C111.25,9.625,126.66666666666666,-11.833333333333334,160,-11C193.33333333333334,-10.166666666666666,206.66666666666666,18,240,18C273.3333333333333,18,286.6666666666667,-16.416666666666664,320,-11C353.3333333333333,-5.583333333333334,366.6666666666667,45.666666666666664,400,44C433.3333333333333,42.333333333333336,446.6666666666667,-17.75,480,-19C513.3333333333334,-20.25,526.6666666666666,33,560,38C593.3333333333334,43,606.6666666666666,6.041666666666667,640,5C673.3333333333334,3.958333333333333,686.6666666666666,32.583333333333336,720,33C753.3333333333334,33.416666666666664,783.3333333333334,12.416666666666666,800,7" transform="matrix(1,0,0,1,0,752)"></path><path d="M10,10C24.583333333333332,10.833333333333334,48.75,18.375,80,14C111.25,9.625,126.66666666666666,-11.833333333333334,160,-11C193.33333333333334,-10.166666666666666,206.66666666666666,18,240,18C273.3333333333333,18,286.6666666666667,-16.416666666666664,320,-11C353.3333333333333,-5.583333333333334,366.6666666666667,45.666666666666664,400,44C433.3333333333333,42.333333333333336,446.6666666666667,-17.75,480,-19C513.3333333333334,-20.25,526.6666666666666,33,560,38C593.3333333333334,43,606.6666666666666,6.041666666666667,640,5C673.3333333333334,3.958333333333333,686.6666666666666,32.583333333333336,720,33C753.3333333333334,33.416666666666664,783.3333333333334,12.416666666666666,800,7" transform="matrix(1,0,0,1,0,705)"></path><path d="M10,10C24.583333333333332,10.833333333333334,48.75,18.375,80,14C111.25,9.625,126.66666666666666,-11.833333333333334,160,-11C193.33333333333334,-10.166666666666666,206.66666666666666,18,240,18C273.3333333333333,18,286.6666666666667,-16.416666666666664,320,-11C353.3333333333333,-5.583333333333334,366.6666666666667,45.666666666666664,400,44C433.3333333333333,42.333333333333336,446.6666666666667,-17.75,480,-19C513.3333333333334,-20.25,526.6666666666666,33,560,38C593.3333333333334,43,606.6666666666666,6.041666666666667,640,5C673.3333333333334,3.958333333333333,686.6666666666666,32.583333333333336,720,33C753.3333333333334,33.416666666666664,783.3333333333334,12.416666666666666,800,7" transform="matrix(1,0,0,1,0,658)"></path><path d="M10,10C24.583333333333332,10.833333333333334,48.75,18.375,80,14C111.25,9.625,126.66666666666666,-11.833333333333334,160,-11C193.33333333333334,-10.166666666666666,206.66666666666666,18,240,18C273.3333333333333,18,286.6666666666667,-16.416666666666664,320,-11C353.3333333333333,-5.583333333333334,366.6666666666667,45.666666666666664,400,44C433.3333333333333,42.333333333333336,446.6666666666667,-17.75,480,-19C513.3333333333334,-20.25,526.6666666666666,33,560,38C593.3333333333334,43,606.6666666666666,6.041666666666667,640,5C673.3333333333334,3.958333333333333,686.6666666666666,32.583333333333336,720,33C753.3333333333334,33.416666666666664,783.3333333333334,12.416666666666666,800,7" transform="matrix(1,0,0,1,0,611)"></path><path d="M10,10C24.583333333333332,10.833333333333334,48.75,18.375,80,14C111.25,9.625,126.66666666666666,-11.833333333333334,160,-11C193.33333333333334,-10.166666666666666,206.66666666666666,18,240,18C273.3333333333333,18,286.6666666666667,-16.416666666666664,320,-11C353.3333333333333,-5.583333333333334,366.6666666666667,45.666666666666664,400,44C433.3333333333333,42.333333333333336,446.6666666666667,-17.75,480,-19C513.3333333333334,-20.25,526.6666666666666,33,560,38C593.3333333333334,43,606.6666666666666,6.041666666666667,640,5C673.3333333333334,3.958333333333333,686.6666666666666,32.583333333333336,720,33C753.3333333333334,33.416666666666664,783.3333333333334,12.416666666666666,800,7" transform="matrix(1,0,0,1,0,564)"></path><path d="M10,10C24.583333333333332,10.833333333333334,48.75,18.375,80,14C111.25,9.625,126.66666666666666,-11.833333333333334,160,-11C193.33333333333334,-10.166666666666666,206.66666666666666,18,240,18C273.3333333333333,18,286.6666666666667,-16.416666666666664,320,-11C353.3333333333333,-5.583333333333334,366.6666666666667,45.666666666666664,400,44C433.3333333333333,42.333333333333336,446.6666666666667,-17.75,480,-19C513.3333333333334,-20.25,526.6666666666666,33,560,38C593.3333333333334,43,606.6666666666666,6.041666666666667,640,5C673.3333333333334,3.958333333333333,686.6666666666666,32.583333333333336,720,33C753.3333333333334,33.416666666666664,783.3333333333334,12.416666666666666,800,7" transform="matrix(1,0,0,1,0,517)"></path><path d="M10,10C24.583333333333332,10.833333333333334,48.75,18.375,80,14C111.25,9.625,126.66666666666666,-11.833333333333334,160,-11C193.33333333333334,-10.166666666666666,206.66666666666666,18,240,18C273.3333333333333,18,286.6666666666667,-16.416666666666664,320,-11C353.3333333333333,-5.583333333333334,366.6666666666667,45.666666666666664,400,44C433.3333333333333,42.333333333333336,446.6666666666667,-17.75,480,-19C513.3333333333334,-20.25,526.6666666666666,33,560,38C593.3333333333334,43,606.6666666666666,6.041666666666667,640,5C673.3333333333334,3.958333333333333,686.6666666666666,32.583333333333336,720,33C753.3333333333334,33.416666666666664,783.3333333333334,12.416666666666666,800,7" transform="matrix(1,0,0,1,0,470)"></path><path d="M10,10C24.583333333333332,10.833333333333334,48.75,18.375,80,14C111.25,9.625,126.66666666666666,-11.833333333333334,160,-11C193.33333333333334,-10.166666666666666,206.66666666666666,18,240,18C273.3333333333333,18,286.6666666666667,-16.416666666666664,320,-11C353.3333333333333,-5.583333333333334,366.6666666666667,45.666666666666664,400,44C433.3333333333333,42.333333333333336,446.6666666666667,-17.75,480,-19C513.3333333333334,-20.25,526.6666666666666,33,560,38C593.3333333333334,43,606.6666666666666,6.041666666666667,640,5C673.3333333333334,3.958333333333333,686.6666666666666,32.583333333333336,720,33C753.3333333333334,33.416666666666664,783.3333333333334,12.416666666666666,800,7" transform="matrix(1,0,0,1,0,423)"></path><path d="M10,10C24.583333333333332,10.833333333333334,48.75,18.375,80,14C111.25,9.625,126.66666666666666,-11.833333333333334,160,-11C193.33333333333334,-10.166666666666666,206.66666666666666,18,240,18C273.3333333333333,18,286.6666666666667,-16.416666666666664,320,-11C353.3333333333333,-5.583333333333334,366.6666666666667,45.666666666666664,400,44C433.3333333333333,42.333333333333336,446.6666666666667,-17.75,480,-19C513.3333333333334,-20.25,526.6666666666666,33,560,38C593.3333333333334,43,606.6666666666666,6.041666666666667,640,5C673.3333333333334,3.958333333333333,686.6666666666666,32.583333333333336,720,33C753.3333333333334,33.416666666666664,783.3333333333334,12.416666666666666,800,7" transform="matrix(1,0,0,1,0,376)"></path><path d="M10,10C24.583333333333332,10.833333333333334,48.75,18.375,80,14C111.25,9.625,126.66666666666666,-11.833333333333334,160,-11C193.33333333333334,-10.166666666666666,206.66666666666666,18,240,18C273.3333333333333,18,286.6666666666667,-16.416666666666664,320,-11C353.3333333333333,-5.583333333333334,366.6666666666667,45.666666666666664,400,44C433.3333333333333,42.333333333333336,446.6666666666667,-17.75,480,-19C513.3333333333334,-20.25,526.6666666666666,33,560,38C593.3333333333334,43,606.6666666666666,6.041666666666667,640,5C673.3333333333334,3.958333333333333,686.6666666666666,32.583333333333336,720,33C753.3333333333334,33.416666666666664,783.3333333333334,12.416666666666666,800,7" transform="matrix(1,0,0,1,0,329)"></path><path d="M10,10C24.583333333333332,10.833333333333334,48.75,18.375,80,14C111.25,9.625,126.66666666666666,-11.833333333333334,160,-11C193.33333333333334,-10.166666666666666,206.66666666666666,18,240,18C273.3333333333333,18,286.6666666666667,-16.416666666666664,320,-11C353.3333333333333,-5.583333333333334,366.6666666666667,45.666666666666664,400,44C433.3333333333333,42.333333333333336,446.6666666666667,-17.75,480,-19C513.3333333333334,-20.25,526.6666666666666,33,560,38C593.3333333333334,43,606.6666666666666,6.041666666666667,640,5C673.3333333333334,3.958333333333333,686.6666666666666,32.583333333333336,720,33C753.3333333333334,33.416666666666664,783.3333333333334,12.416666666666666,800,7" transform="matrix(1,0,0,1,0,282)"></path><path d="M10,10C24.583333333333332,10.833333333333334,48.75,18.375,80,14C111.25,9.625,126.66666666666666,-11.833333333333334,160,-11C193.33333333333334,-10.166666666666666,206.66666666666666,18,240,18C273.3333333333333,18,286.6666666666667,-16.416666666666664,320,-11C353.3333333333333,-5.583333333333334,366.6666666666667,45.666666666666664,400,44C433.3333333333333,42.333333333333336,446.6666666666667,-17.75,480,-19C513.3333333333334,-20.25,526.6666666666666,33,560,38C593.3333333333334,43,606.6666666666666,6.041666666666667,640,5C673.3333333333334,3.958333333333333,686.6666666666666,32.583333333333336,720,33C753.3333333333334,33.416666666666664,783.3333333333334,12.416666666666666,800,7" transform="matrix(1,0,0,1,0,235)"></path><path d="M10,10C24.583333333333332,10.833333333333334,48.75,18.375,80,14C111.25,9.625,126.66666666666666,-11.833333333333334,160,-11C193.33333333333334,-10.166666666666666,206.66666666666666,18,240,18C273.3333333333333,18,286.6666666666667,-16.416666666666664,320,-11C353.3333333333333,-5.583333333333334,366.6666666666667,45.666666666666664,400,44C433.3333333333333,42.333333333333336,446.6666666666667,-17.75,480,-19C513.3333333333334,-20.25,526.6666666666666,33,560,38C593.3333333333334,43,606.6666666666666,6.041666666666667,640,5C673.3333333333334,3.958333333333333,686.6666666666666,32.583333333333336,720,33C753.3333333333334,33.416666666666664,783.3333333333334,12.416666666666666,800,7" transform="matrix(1,0,0,1,0,188)"></path><path d="M10,10C24.583333333333332,10.833333333333334,48.75,18.375,80,14C111.25,9.625,126.66666666666666,-11.833333333333334,160,-11C193.33333333333334,-10.166666666666666,206.66666666666666,18,240,18C273.3333333333333,18,286.6666666666667,-16.416666666666664,320,-11C353.3333333333333,-5.583333333333334,366.6666666666667,45.666666666666664,400,44C433.3333333333333,42.333333333333336,446.6666666666667,-17.75,480,-19C513.3333333333334,-20.25,526.6666666666666,33,560,38C593.3333333333334,43,606.6666666666666,6.041666666666667,640,5C673.3333333333334,3.958333333333333,686.6666666666666,32.583333333333336,720,33C753.3333333333334,33.416666666666664,783.3333333333334,12.416666666666666,800,7" transform="matrix(1,0,0,1,0,141)"></path><path d="M10,10C24.583333333333332,10.833333333333334,48.75,18.375,80,14C111.25,9.625,126.66666666666666,-11.833333333333334,160,-11C193.33333333333334,-10.166666666666666,206.66666666666666,18,240,18C273.3333333333333,18,286.6666666666667,-16.416666666666664,320,-11C353.3333333333333,-5.583333333333334,366.6666666666667,45.666666666666664,400,44C433.3333333333333,42.333333333333336,446.6666666666667,-17.75,480,-19C513.3333333333334,-20.25,526.6666666666666,33,560,38C593.3333333333334,43,606.6666666666666,6.041666666666667,640,5C673.3333333333334,3.958333333333333,686.6666666666666,32.583333333333336,720,33C753.3333333333334,33.416666666666664,783.3333333333334,12.416666666666666,800,7" transform="matrix(1,0,0,1,0,94)"></path><path d="M10,10C24.583333333333332,10.833333333333334,48.75,18.375,80,14C111.25,9.625,126.66666666666666,-11.833333333333334,160,-11C193.33333333333334,-10.166666666666666,206.66666666666666,18,240,18C273.3333333333333,18,286.6666666666667,-16.416666666666664,320,-11C353.3333333333333,-5.583333333333334,366.6666666666667,45.666666666666664,400,44C433.3333333333333,42.333333333333336,446.6666666666667,-17.75,480,-19C513.3333333333334,-20.25,526.6666666666666,33,560,38C593.3333333333334,43,606.6666666666666,6.041666666666667,640,5C673.3333333333334,3.958333333333333,686.6666666666666,32.583333333333336,720,33C753.3333333333334,33.416666666666664,783.3333333333334,12.416666666666666,800,7" transform="matrix(1,0,0,1,0,47)"></path></g></svg>